<?xml version="1.0" encoding="iso-8859-1"?>
<!-- Generator: Adobe Illustrator 19.0.0, SVG Export Plug-In . SVG Version: 6.00 Build 0)  -->
<svg version="1.1" id="&#x56FE;&#x5C42;_1" xmlns="http://www.w3.org/2000/svg" xmlns:xlink="http://www.w3.org/1999/xlink" x="0px"
	 y="0px" viewBox="-4 73 190.667 56" style="enable-background:new -4 73 190.667 56;" xml:space="preserve">
<g>
	<g>
		<path style="fill:#FFFFFF;" d="M0.277,77.24h9.726c1.925,0,3.361,0.081,4.307,0.241c0.946,0.16,1.793,0.495,2.539,1.004
			c0.747,0.509,1.369,1.187,1.867,2.033s0.747,1.795,0.747,2.847c0,1.139-0.307,2.185-0.921,3.137
			c-0.614,0.952-1.447,1.666-2.498,2.141c1.483,0.432,2.622,1.168,3.419,2.208s1.195,2.263,1.195,3.668
			c0,1.106-0.257,2.183-0.772,3.228c-0.515,1.046-1.217,1.881-2.108,2.506s-1.989,1.01-3.295,1.154
			c-0.819,0.089-2.794,0.144-5.925,0.166H0.277V77.24z M5.19,81.29v5.627h3.22c1.915,0,3.104-0.027,3.569-0.083
			c0.841-0.1,1.502-0.39,1.983-0.871c0.481-0.481,0.722-1.115,0.722-1.9c0-0.753-0.207-1.364-0.622-1.834
			c-0.415-0.471-1.032-0.755-1.851-0.855c-0.488-0.056-1.887-0.084-4.2-0.084H5.19z M5.19,90.967v6.506h4.548
			c1.77,0,2.894-0.05,3.369-0.149c0.73-0.133,1.325-0.456,1.784-0.971s0.689-1.203,0.689-2.066c0-0.73-0.177-1.35-0.531-1.859
			c-0.354-0.509-0.866-0.88-1.535-1.112c-0.67-0.232-2.122-0.349-4.357-0.349H5.19z"/>
		<path style="fill:#FFFFFF;" d="M26.561,89.324l-4.232-0.764c0.476-1.704,1.295-2.965,2.457-3.784s2.888-1.228,5.179-1.228
			c2.081,0,3.629,0.246,4.647,0.739c1.018,0.492,1.734,1.118,2.149,1.876c0.415,0.758,0.622,2.149,0.622,4.174l-0.05,5.444
			c0,1.549-0.002,2.685-0.002,3.416c0,0.77,0,1.421,0,2.377h-4.152c0-0.358,0-0.744,0-1.38c-0.028-0.285,0.021-0.456-0.012-0.545
			c-0.797,0.774-1.649,1.355-2.556,1.743s-1.876,0.581-2.905,0.581c-1.815,0-3.245-0.492-4.291-1.477s-1.569-2.23-1.569-3.735
			c0-0.996,0.238-1.884,0.714-2.664s1.143-1.378,2-1.793s2.094-0.778,3.71-1.087c2.18-0.409,3.691-0.791,4.531-1.145v-0.465
			c0-0.896-0.222-1.535-0.664-1.917s-1.278-0.573-2.506-0.573c-0.83,0-1.477,0.163-1.942,0.49
			C27.225,87.932,26.849,88.505,26.561,89.324z M32.802,93.108c-0.598,0.199-1.544,0.437-2.838,0.714
			c-1.295,0.276-2.141,0.548-2.539,0.813c-0.608,0.432-0.913,0.979-0.913,1.643c0,0.653,0.243,1.217,0.73,1.693
			c0.487,0.476,1.106,0.714,1.859,0.714c0.841,0,1.643-0.276,2.407-0.83c0.564-0.421,0.935-0.935,1.112-1.544
			c0.122-0.398,0.183-1.156,0.183-2.274L32.802,93.108L32.802,93.108z"/>
		<path style="fill:#FFFFFF;" d="M40.281,81.556V77.24h4.664v4.315L40.281,81.556L40.281,81.556z M40.281,101.573V83.946h4.664
			v17.627C44.945,101.573,40.281,101.573,40.281,101.573z"/>
		<path style="fill:#FFFFFF;" d="M64.192,101.573H59.86v-2.589c-0.72,1.007-1.569,1.757-2.548,2.249
			c-0.979,0.492-1.967,0.739-2.963,0.739c-2.025,0-3.759-0.816-5.203-2.448c-1.444-1.632-2.166-3.909-2.166-6.83
			c0-2.988,0.703-5.259,2.108-6.813c1.405-1.554,3.181-2.332,5.328-2.332c1.969,0,3.674,0.819,5.112,2.457V77.24h4.664V101.573z
			 M51.744,92.378c0,1.881,0.26,3.242,0.78,4.083c0.753,1.217,1.803,1.826,3.154,1.826c1.073,0,1.986-0.456,2.739-1.369
			c0.753-0.913,1.129-2.276,1.129-4.091c0-2.025-0.365-3.483-1.095-4.374c-0.73-0.891-1.666-1.336-2.805-1.336
			c-1.106,0-2.033,0.44-2.78,1.32C52.117,89.316,51.744,90.629,51.744,92.378z"/>
		<path style="fill:#FFFFFF;" d="M78.692,101.573v-2.639c-0.642,0.94-1.486,1.682-2.531,2.224c-1.046,0.542-2.149,0.813-3.311,0.813
			c-1.184,0-2.247-0.26-3.187-0.78c-0.94-0.52-1.621-1.251-2.042-2.191s-0.631-2.241-0.631-3.901V83.946h4.664v8.1
			c0,2.479,0.085,3.998,0.257,4.556c0.172,0.559,0.484,1.002,0.938,1.328s1.029,0.49,1.726,0.49c0.797,0,1.51-0.218,2.141-0.656
			s1.062-0.979,1.295-1.627c0.232-0.647,0.349-2.232,0.349-4.755v-7.436h4.664v17.627C83.024,101.573,78.692,101.573,78.692,101.573
			z"/>
		<path style="fill:#FFFFFF;" d="M113.518,98.486c1.206,0.863,2.517,1.549,3.934,2.058l-1.809,3.469
			c-0.741-0.222-1.466-0.525-2.174-0.913c-0.155-0.077-1.245-0.797-3.27-2.158c-1.593,0.697-3.359,1.046-5.295,1.046
			c-3.74,0-6.67-1.101-8.789-3.303c-2.119-2.202-3.179-5.295-3.179-9.278c0-3.973,1.062-7.062,3.187-9.27s5.007-3.311,8.648-3.311
			c3.608,0,6.467,1.104,8.581,3.311s3.17,5.297,3.17,9.27c0,2.102-0.293,3.95-0.88,5.544
			C115.2,96.168,114.491,97.346,113.518,98.486z M109.567,95.714c0.631-0.741,1.104-1.637,1.419-2.689
			c0.315-1.051,0.473-2.257,0.473-3.618c0-2.811-0.62-4.911-1.859-6.299s-2.861-2.083-4.863-2.083c-2.003,0-3.627,0.697-4.872,2.091
			c-1.245,1.394-1.867,3.491-1.867,6.291c0,2.844,0.622,4.971,1.867,6.382c1.245,1.411,2.819,2.116,4.722,2.116
			c0.708,0,1.378-0.116,2.008-0.349c-0.996-0.653-2.008-1.162-3.037-1.527l1.378-2.805
			C106.552,93.778,108.096,94.608,109.567,95.714z"/>
		<path style="fill:#FFFFFF;" d="M130.242,101.573v-2.639c-0.642,0.94-1.486,1.682-2.531,2.224
			c-1.046,0.542-2.149,0.813-3.311,0.813c-1.184,0-2.247-0.26-3.187-0.78c-0.94-0.52-1.621-1.251-2.042-2.191
			s-0.631-2.241-0.631-3.901V83.946h4.664v8.1c0,2.479,0.085,3.998,0.257,4.556c0.172,0.559,0.484,1.002,0.938,1.328
			s1.029,0.49,1.726,0.49c0.797,0,1.51-0.218,2.141-0.656c0.631-0.437,1.062-0.979,1.295-1.627s0.349-2.232,0.349-4.755v-7.436
			h4.664v17.627C134.574,101.573,130.242,101.573,130.242,101.573z"/>
		<path style="fill:#FFFFFF;" d="M170.943,101.573h-4.664v-8.996c0-1.903-0.1-3.135-0.299-3.693
			c-0.199-0.559-0.523-0.993-0.971-1.303c-0.448-0.31-0.988-0.465-1.618-0.465c-0.807,0-1.533,0.222-2.174,0.664
			c-0.642,0.442-1.081,1.029-1.32,1.759c-0.238,0.73-0.357,2.081-0.357,4.05v7.984h-4.664V83.946h4.332v2.589
			c1.538-1.992,3.475-2.988,5.809-2.988c1.029,0,1.969,0.185,2.822,0.556c0.852,0.371,1.496,0.844,1.934,1.419
			c0.437,0.575,0.741,1.228,0.913,1.959c0.172,0.73,0.257,1.776,0.257,3.137L170.943,101.573L170.943,101.573z"/>
		<path style="fill:#FFFFFF;" d="M182.057,83.946v3.718h-3.187v7.104c0,1.438,0.031,2.276,0.091,2.515
			c0.061,0.238,0.199,0.434,0.415,0.589c0.216,0.155,0.479,0.232,0.788,0.232c0.432,0,1.056-0.149,1.876-0.448l0.399,3.618
			c-1.085,0.465-2.313,0.697-3.685,0.697c-0.841,0-1.599-0.141-2.274-0.423c-0.675-0.282-1.17-0.647-1.486-1.095
			c-0.315-0.448-0.534-1.054-0.656-1.817c-0.1-0.542-0.149-1.637-0.149-3.286v-7.685h-2.141v-3.718h2.141v-6.225h4.681v6.224
			H182.057z"/>
		<path style="fill:#FFFFFF;" d="M141.231,89.324l-4.232-0.764c0.476-1.704,1.295-2.965,2.456-3.784
			c1.162-0.819,2.888-1.228,5.179-1.228c2.081,0,3.629,0.246,4.647,0.739c1.018,0.492,1.734,1.118,2.149,1.876
			c0.415,0.758,0.622,2.149,0.622,4.174l-0.05,5.444c0,1.549-0.002,2.685-0.002,3.416c0,0.77,0,1.421,0,2.377h-4.152
			c0-0.358,0-0.744,0-1.38c-0.028-0.285,0.021-0.456-0.012-0.545c-0.797,0.774-1.649,1.355-2.556,1.743s-1.876,0.581-2.905,0.581
			c-1.815,0-3.245-0.492-4.291-1.477s-1.569-2.23-1.569-3.735c0-0.996,0.238-1.884,0.714-2.664s1.143-1.378,2-1.793
			c0.857-0.415,2.094-0.778,3.71-1.087c2.18-0.409,3.691-0.791,4.531-1.145v-0.465c0-0.896-0.222-1.535-0.664-1.917
			s-1.278-0.573-2.506-0.573c-0.83,0-1.477,0.163-1.942,0.49C141.895,87.932,141.519,88.505,141.231,89.324z M147.472,93.108
			c-0.598,0.199-1.544,0.437-2.838,0.714c-1.295,0.276-2.141,0.548-2.539,0.813c-0.608,0.432-0.913,0.979-0.913,1.643
			c0,0.653,0.243,1.217,0.73,1.693s1.106,0.714,1.859,0.714c0.841,0,1.643-0.276,2.407-0.83c0.564-0.421,0.935-0.935,1.112-1.544
			c0.122-0.398,0.183-1.156,0.183-2.274L147.472,93.108L147.472,93.108z"/>
	</g>
	<g>
		<path style="fill:#FFFFFF;" d="M21.933,109.54c0.708,0.089,3.01,0.133,6.906,0.133c2.125,0,3.762-0.021,4.914-0.066
			c1.195-0.044,2.213-0.133,3.055-0.266v1.395l-1.062-0.066c-0.797-0.088-3.033-0.133-6.707-0.133l-0.199,0.465
			c-0.044,0.133-0.066,0.178-0.066,0.133c-0.222,0.531-0.598,1.417-1.129,2.656h1.727c0.708,0,1.992-0.044,3.852-0.133
			c0.266-0.044,0.465-0.066,0.598-0.066l-0.066,1.328c0,0.222,0,3.299,0,9.23h-1.195v-1.262h-7.637v1.262h-1.195v-3.918
			c0-2.258-0.066-4.471-0.199-6.641l1.328,0.066c0.221,0,0.531,0.022,0.93,0.066c0.221,0.045,0.465,0.066,0.73,0.066l0.398-0.797
			c0.221-0.575,0.465-1.395,0.73-2.457h-2.324c-1.152,0-2.634,0.066-4.449,0.199v-1.395L21.933,109.54z M32.558,114.653h-7.637
			v3.387h7.637V114.653z M32.558,118.903h-7.637v3.188h7.637V118.903z"/>
		<path style="fill:#FFFFFF;" d="M49.348,109.341l-0.598,0.73h1.926c1.284,0,2.656-0.133,4.117-0.398v1.594l-1.062-0.066
			c-0.886-0.088-1.97-0.133-3.254-0.133l1.328,0.398v0.199l-0.199,0.133v0.199c0,0.045,0,0.332,0,0.863h0.266l1.527-0.199
			c0.354-0.044,0.641-0.088,0.863-0.133v1.594l-1.062-0.133c-0.531-0.044-1.062-0.066-1.594-0.066v0.199c0-0.088,0,0.73,0,2.457
			h-0.332c-0.266,0-1.285,0-3.055,0c-1.771,0-2.812,0-3.121,0l0.066-1.129c0.043-0.575,0.066-1.084,0.066-1.527h-0.266
			c-0.355,0-1.152,0.066-2.391,0.199v-1.594l1.062,0.199c0.176,0,0.375,0.022,0.598,0.066c0.442,0.045,0.774,0.066,0.996,0.066
			v-0.332c0-0.31-0.044-0.797-0.133-1.461h-2.922v2.855c0,1.904-0.044,3.033-0.133,3.387c-0.133,0.354-0.222,0.73-0.266,1.129
			c-0.044,0.398-0.111,0.797-0.199,1.195c-0.044,0.311-0.133,0.664-0.266,1.062c-0.133,0.311-0.266,0.664-0.398,1.062
			c-0.222,0.398-0.554,0.951-0.996,1.66l-1.195-0.531l0.332-0.465c0.221-0.221,0.42-0.486,0.598-0.797
			c0.176-0.266,0.332-0.531,0.465-0.797c0.043-0.088,0.11-0.266,0.199-0.531c0.043-0.088,0.088-0.177,0.133-0.266
			c0.133-0.31,0.221-0.664,0.266-1.062c0.088-0.398,0.155-0.863,0.199-1.395c0.043-0.221,0.066-0.531,0.066-0.93
			c0-0.354,0-1.018,0-1.992c0-0.974,0-1.771,0-2.391c-0.044-0.708-0.089-1.505-0.133-2.391l1.328,0.066
			c1.018,0.089,3.098,0.133,6.242,0.133l-1.727-1.461l0.664-0.664L49.348,109.341z M44.168,117.509
			c0.62,0.089,1.859,0.133,3.719,0.133c1.239,0,2.147,0,2.723,0c0.664-0.044,1.305-0.088,1.926-0.133l-0.531,0.664
			c-0.133,0.178-0.332,0.443-0.598,0.797c-0.222,0.222-0.376,0.398-0.465,0.531c-0.398,0.398-0.753,0.797-1.062,1.195
			c-0.089,0.089-0.222,0.199-0.398,0.332c-0.177,0.178-0.31,0.288-0.398,0.332l0.266,0.199c0.176,0.133,0.465,0.288,0.863,0.465
			c0.309,0.133,0.664,0.244,1.062,0.332c0.133,0.044,0.398,0.11,0.797,0.199c0.221,0.044,0.398,0.088,0.531,0.133
			c0.309,0.088,0.84,0.199,1.594,0.332c0.266,0,0.465,0.021,0.598,0.066l-0.531,1.195l-0.598-0.199
			c-0.133-0.045-0.332-0.089-0.598-0.133c-0.31-0.089-0.531-0.155-0.664-0.199c-0.133-0.045-0.31-0.089-0.531-0.133
			c-0.266-0.089-0.465-0.155-0.598-0.199c-0.398-0.133-0.797-0.288-1.195-0.465c-0.089-0.045-0.244-0.111-0.465-0.199
			c-0.31-0.133-0.531-0.244-0.664-0.332c-0.31-0.088-0.576-0.221-0.797-0.398l-0.066,0.066l-0.664,0.266
			c-0.089,0.044-0.222,0.11-0.398,0.199c-0.133,0.088-0.443,0.243-0.93,0.465c-0.222,0.133-0.531,0.287-0.93,0.465
			c-0.177,0.088-0.31,0.154-0.398,0.199c-0.089,0.044-0.222,0.088-0.398,0.133c-0.621,0.221-1.262,0.442-1.926,0.664l-0.531-1.062
			l0.531-0.199c0.309-0.133,0.664-0.222,1.062-0.266c0.309-0.045,0.664-0.133,1.062-0.266c0.088-0.045,0.221-0.089,0.398-0.133
			c0.266-0.089,0.442-0.155,0.531-0.199c0.266-0.088,0.598-0.199,0.996-0.332c0.133-0.088,0.288-0.177,0.465-0.266
			c0.176-0.088,0.332-0.177,0.465-0.266l-0.398-0.332c-0.133-0.088-0.289-0.243-0.465-0.465c-0.133-0.133-0.222-0.221-0.266-0.266
			c-0.089-0.133-0.199-0.287-0.332-0.465c-0.177-0.177-0.31-0.332-0.398-0.465c-0.31-0.398-0.509-0.664-0.598-0.797l-1.66,0.199
			v-1.594L44.168,117.509z M45.297,111.067l1.395,0.398v0.199l-0.199,0.133l-0.066,0.199c0,0.045,0,0.332,0,0.863h3.984v-0.332
			c0-0.133-0.023-0.376-0.066-0.73c0.043,0.222,0.022,0.178-0.066-0.133l-0.066-0.598H45.297z M46.028,118.704l0.332,0.332
			c0.221,0.266,0.531,0.598,0.93,0.996s0.708,0.687,0.93,0.863l0.797-0.863c0.133-0.133,0.309-0.31,0.531-0.531
			c0.354-0.31,0.62-0.575,0.797-0.797H46.028z M50.411,113.923h-3.984v1.594h3.984V113.923z"/>
		<path style="fill:#FFFFFF;" d="M57.905,114.122c0.708,0.133,3.01,0.199,6.906,0.199c2.213,0,3.874-0.021,4.98-0.066
			c1.195-0.088,2.191-0.199,2.988-0.332v1.461l-1.062-0.133c-0.708-0.044-1.351-0.066-1.926-0.066c-0.443,0-1.041,0-1.793,0
			c-0.621,0-1.683,0-3.188,0c-1.505,0-2.59,0-3.254,0c-0.753,0-1.395,0.022-1.926,0.066c-1.107,0-2.037,0.045-2.789,0.133v-1.461
			L57.905,114.122z M60.295,115.649c0.664,0.045,1.129,0.066,1.395,0.066c0.309,0,0.73,0,1.262,0c0.398,0,1.084,0,2.059,0
			c0.973,0,1.66,0,2.059,0c0.531,0,0.996-0.021,1.395-0.066c0.797,0,1.527-0.044,2.191-0.133v0.996c0,0.664,0,1.129,0,1.395
			c0,0.178,0,0.975,0,2.391l-0.664-0.066v0.066h-4.516v0.93h1.793c1.151,0,2.457-0.133,3.918-0.398v1.461l-1.062-0.133
			c-0.31-0.044-0.753-0.066-1.328-0.066c-0.443,0-1.55,0-3.32,0v0.996h2.391c1.594,0,3.121-0.133,4.582-0.398v1.461l-1.062-0.133
			c-0.708-0.045-1.328-0.066-1.859-0.066c-0.443,0-1.019,0-1.727,0c-0.576,0-1.572,0-2.988,0c-1.417,0-2.435,0-3.055,0
			c-0.708,0-1.328,0.021-1.859,0.066c-1.062,0-1.949,0.044-2.656,0.133v-1.461l1.062,0.199c0.442,0.133,2.5,0.199,6.176,0.199
			v-0.996H62.62c-0.886,0-1.572,0.022-2.059,0.066c-0.576,0-1.218,0.045-1.926,0.133v-1.461l1.062,0.199
			c0.531,0.133,2.125,0.199,4.781,0.199v-0.93h-5.113l0.066-0.93c0.043-0.664,0.066-1.15,0.066-1.461
			c0-0.442-0.044-1.239-0.133-2.391L60.295,115.649z M60.295,108.876c0.664,0.089,2.191,0.133,4.582,0.133
			c2.125,0,4.006-0.066,5.645-0.199l-0.066,0.996c0,0.576,0,1.041,0,1.395c0,0.443,0.022,1.24,0.066,2.391l-0.93-0.066v0.066h-4.98
			c-3.277,0-5.025,0-5.246,0l0.066-0.996c0.043-0.664,0.066-1.129,0.066-1.395c0-0.442-0.044-1.239-0.133-2.391L60.295,108.876z
			 M69.459,109.872h-8.898v1.062h8.898V109.872z M69.459,111.798h-8.898v0.93h8.898V111.798z M64.479,116.579h-3.918v1.062h3.918
			V116.579z M64.479,118.505h-3.918v0.93h3.918V118.505z M69.592,116.579h-4.117v1.062h4.117V116.579z M69.592,118.505h-4.117v0.93
			h4.117V118.505z"/>
		<path style="fill:#FFFFFF;" d="M79.676,108.079c-0.089-0.088,0.42,0.155,1.527,0.73v0.199l-0.332,0.266
			c-0.266,0.133-0.465,0.354-0.598,0.664c-0.089,0.133-0.199,0.332-0.332,0.598s-0.244,0.465-0.332,0.598
			c-0.133,0.222-0.244,1.307-0.332,3.254c-0.044,1.948-0.066,5.312-0.066,10.094h-1.195v-10.625l-0.266,0.398
			c-0.044,0.045-0.111,0.133-0.199,0.266c-0.222,0.311-0.398,0.554-0.531,0.73c-0.089,0.133-0.244,0.354-0.465,0.664
			c-0.31,0.398-0.576,0.753-0.797,1.062l-1.262-0.73l0.398-0.465c0.133-0.133,0.332-0.332,0.598-0.598
			c0.133-0.133,0.243-0.243,0.332-0.332c0.266-0.398,0.531-0.73,0.797-0.996c0.088-0.133,0.199-0.31,0.332-0.531
			c0.133-0.177,0.243-0.332,0.332-0.465c0.088-0.133,0.243-0.354,0.465-0.664c0.088-0.221,0.176-0.376,0.266-0.465
			c0.088-0.177,0.243-0.442,0.465-0.797c0.088-0.221,0.176-0.398,0.266-0.531c0.176-0.354,0.465-1.129,0.863-2.324H79.676z
			 M83.527,108.278c0.133,0,0.398,0.022,0.797,0.066c0.088,0,0.221,0.022,0.398,0.066c0.176,0.045,0.309,0.066,0.398,0.066v0.133
			l-0.199,0.199c-0.133,0.133-0.199,0.288-0.199,0.465c0-0.398,0,1.882,0,6.84l0.066-0.133c0.043-0.044,0.11-0.088,0.199-0.133
			c0.176-0.133,0.309-0.243,0.398-0.332c0.309-0.221,0.598-0.486,0.863-0.797c0.309-0.266,0.598-0.575,0.863-0.93l0.066-0.066
			c0.442-0.486,1.062-1.306,1.859-2.457l1.195,1.062v0.199l-0.664,0.199l-1.062,1.129c-0.753,0.709-1.328,1.307-1.727,1.793
			c-0.089,0.089-0.244,0.244-0.465,0.465c-0.576,0.531-1.107,1.041-1.594,1.527v2.191c0,1.506,0,2.324,0,2.457
			c-0.044,0,0.088,0.133,0.398,0.398l0.398,0.066c0.309,0.088,0.73,0.133,1.262,0.133c0.309,0,0.885-0.045,1.727-0.133
			c-0.089,0,0.022-0.022,0.332-0.066l0.133-0.199c0.133-0.089,0.266-0.221,0.398-0.398c0.088-0.177,0.199-0.708,0.332-1.594
			l1.262,0.531l-0.199,0.73c-0.044,0.178-0.177,0.554-0.398,1.129c-0.222,0.31-0.398,0.531-0.531,0.664
			c-0.177,0.133-0.664,0.221-1.461,0.266c-0.133,0-0.31,0.021-0.531,0.066c-0.398,0.044-0.863,0.066-1.395,0.066
			s-0.953-0.045-1.262-0.133c-0.089,0-0.199-0.022-0.332-0.066c-0.177,0-0.289-0.022-0.332-0.066
			c-0.177-0.045-0.332-0.111-0.465-0.199c-0.133-0.045-0.31-0.244-0.531-0.598v-4.25l-0.531,0.398
			c-0.443,0.311-1.152,0.73-2.125,1.262l-1.062-1.062l0.797-0.332c0.575-0.31,1.129-0.598,1.66-0.863l0.465-0.266
			c0.221-0.177,0.487-0.354,0.797-0.531v-3.852c0-2.435-0.066-4.139-0.199-5.113H83.527z"/>
		<path style="fill:#FFFFFF;" d="M95.403,109.274c0.885,0.045,1.439,0.066,1.66,0.066c0.398,0,0.863,0,1.395,0
			c0.443,0,1.195,0,2.258,0s1.838,0,2.324,0c0.531,0,1.041-0.021,1.527-0.066c0.93,0,1.859-0.044,2.789-0.133l-0.066,1.328
			c0-0.133,0,4.295,0,13.281h-1.195v-1.062H95.47v1.262h-1.195v-6.043c0-3.719-0.066-6.641-0.199-8.766L95.403,109.274z
			 M106.095,110.403H95.47v11.355h10.625V110.403z M99.919,110.603c0.133,0,0.398,0.022,0.797,0.066
			c0.266,0.045,0.531,0.066,0.797,0.066v0.199l-0.332,0.332l-0.066,0.266c0,0.178,0,0.487,0,0.93c0,0.266-0.066,0.709-0.199,1.328
			h1.328c0.842,0,1.904-0.133,3.188-0.398v1.594l-0.93-0.066c-0.709-0.088-1.992-0.133-3.852-0.133l-0.133,0.465l0.398,0.332
			c0.266,0.178,0.818,0.664,1.66,1.461c0.133,0.133,0.178,0.178,0.133,0.133c0.885,0.797,1.66,1.55,2.324,2.258l-1.062,1.062
			l-0.465-0.598c-0.133-0.177-0.311-0.442-0.531-0.797c-0.178-0.221-0.287-0.376-0.332-0.465c-0.266-0.398-0.619-0.774-1.062-1.129
			c-0.133-0.133-0.311-0.287-0.531-0.465c-0.311-0.31-0.598-0.598-0.863-0.863l-0.066,0.133c0,0.089-0.066,0.266-0.199,0.531
			c-0.133,0.311-0.287,0.62-0.465,0.93c-0.178,0.266-0.199,0.311-0.066,0.133c-0.133,0.178-0.465,0.576-0.996,1.195
			c-0.178,0.222-0.42,0.487-0.73,0.797c-0.311,0.311-0.553,0.576-0.73,0.797l-1.262-1.062l0.531-0.266
			c0.088-0.044,0.221-0.11,0.398-0.199c0.221-0.177,0.377-0.287,0.465-0.332c0.088-0.044,0.199-0.133,0.332-0.266
			s0.244-0.221,0.332-0.266c0.045-0.088,0.133-0.199,0.266-0.332s0.221-0.243,0.266-0.332c0.133-0.221,0.266-0.486,0.398-0.797
			c0.045-0.088,0.111-0.221,0.199-0.398c0.045-0.177,0.088-0.31,0.133-0.398c0.133-0.133,0.332-0.553,0.598-1.262h-0.93
			c-0.311,0-0.975,0.045-1.992,0.133c-0.266,0.045-0.486,0.066-0.664,0.066v-1.594l0.863,0.199c0.531,0.133,1.506,0.199,2.922,0.199
			l0.066-0.398c0-0.044,0-0.154,0-0.332c0.045-0.221,0.066-0.42,0.066-0.598c0-0.266-0.045-0.73-0.133-1.395
			c-0.045-0.221-0.066-0.376-0.066-0.465H99.919z"/>
		<path style="fill:#FFFFFF;" d="M113.987,108.81c0.708,0.133,2.324,0.199,4.848,0.199c2.169,0,4.228-0.066,6.176-0.199l-0.664,0.73
			c-0.178,0.222-0.465,0.51-0.863,0.863c-0.222,0.222-0.377,0.377-0.465,0.465c-0.178,0.133-0.421,0.354-0.73,0.664
			c-0.311,0.311-0.554,0.531-0.73,0.664c-0.222,0.178-0.51,0.421-0.863,0.73c-0.266,0.178-0.465,0.311-0.598,0.398
			c-0.398,0.266-0.62,0.421-0.664,0.465c0-0.088,0,0.377,0,1.395h2.523c1.594,0,3.143-0.11,4.648-0.332v1.594l-1.062-0.133
			c-0.311-0.044-0.842-0.066-1.594-0.066c-0.354,0-0.863,0-1.527,0c-0.487,0-1.483,0-2.988,0v3.254c0,2.17-0.045,3.342-0.133,3.52
			c-0.089,0.266-0.199,0.442-0.332,0.531c-0.133,0.133-0.311,0.221-0.531,0.266c-0.045,0-0.133,0.021-0.266,0.066
			c-0.089,0-0.354,0.066-0.797,0.199c-0.443,0.133-0.863,0.199-1.262,0.199l-0.531-1.594l0.531,0.066
			c0.354,0.088,0.42,0.11,0.199,0.066c0.221,0.044,0.42,0.066,0.598,0.066c0.221,0,0.42-0.045,0.598-0.133
			c0.221-0.045,0.465-0.178,0.73-0.398v-6.109h-2.457c-1.151,0-1.992,0.022-2.523,0.066c-0.664,0-1.351,0.045-2.059,0.133v-1.594
			l1.062,0.133c0.442,0.133,2.435,0.199,5.977,0.199v-0.332c0-0.354-0.045-0.885-0.133-1.594l0.531-0.199
			c0.31-0.133,0.664-0.332,1.062-0.598c0.177-0.177,0.465-0.442,0.863-0.797c-0.266,0.222-0.199,0.178,0.199-0.133
			c0.31-0.266,0.907-0.774,1.793-1.527h-3.785c-2.125,0-4.073,0.066-5.844,0.199v-1.594L113.987,108.81z"/>
		<path style="fill:#FFFFFF;" d="M131.11,108.81c0.797,0.133,2.59,0.199,5.379,0.199c1.594,0,2.855-0.021,3.785-0.066
			c0.974-0.088,1.926-0.199,2.855-0.332v1.594l-1.262-0.066c-0.975-0.088-2.457-0.133-4.449-0.133v7.305h2.391
			c1.549,0,3.188-0.11,4.914-0.332v1.594l-1.262-0.133c-0.354-0.044-0.908-0.066-1.66-0.066c-0.354,0-0.842,0-1.461,0
			c-0.531,0-1.506,0-2.922,0v6.109h-1.195v-6.109h-2.59c-1.195,0-2.104,0.022-2.723,0.066c-0.709,0-1.461,0.045-2.258,0.133v-1.594
			l1.195,0.133c0.575,0.133,2.7,0.199,6.375,0.199v-7.305h-1.926c-0.886,0-2.369,0.066-4.449,0.199v-1.594L131.11,108.81z
			 M132.306,112.329c0.044,0.045,0.11,0.133,0.199,0.266c0.619,0.753,1.328,1.683,2.125,2.789l-1.062,0.664l-0.465-0.664
			c-0.266-0.486-0.576-0.996-0.93-1.527c-0.089-0.133-0.222-0.31-0.398-0.531c-0.354-0.486-0.687-0.93-0.996-1.328l0.863-0.531
			L132.306,112.329z M142.798,111.997v0.199l-0.465,0.266c-0.266,0.133-0.554,0.421-0.863,0.863
			c-0.222,0.222-0.908,1.262-2.059,3.121l-1.062-0.73l0.531-0.598c0.088-0.133,0.221-0.31,0.398-0.531
			c0.31-0.398,0.531-0.708,0.664-0.93c0.398-0.619,0.885-1.416,1.461-2.391L142.798,111.997z"/>
		<path style="fill:#FFFFFF;" d="M153.745,108.079c0.133,0,0.708,0.311,1.727,0.93v0.133l-0.398,0.133
			c-0.222,0.045-0.576,0.266-1.062,0.664c-0.222,0.178-0.531,0.487-0.93,0.93c-0.222,0.222-0.398,0.398-0.531,0.531
			c-0.222,0.222-0.775,0.73-1.66,1.527c-0.576,0.576-1.062,1.041-1.461,1.395l2.656-0.133c0.354,0,0.907-0.021,1.66-0.066
			c1.859-0.044,3.719-0.11,5.578-0.199l-0.133-0.133c-0.045-0.044-0.111-0.11-0.199-0.199c-0.222-0.177-0.398-0.332-0.531-0.465
			c-0.354-0.266-0.709-0.575-1.062-0.93c-0.222-0.266-0.709-0.664-1.461-1.195c0.044,0.045,0,0.022-0.133-0.066l0.93-0.73
			l0.531,0.465c0.133,0.089,0.42,0.332,0.863,0.73c0.442,0.398,0.797,0.709,1.062,0.93c0.088,0.089,0.243,0.222,0.465,0.398
			c0.841,0.797,1.571,1.506,2.191,2.125l-0.863,0.863l-0.93-0.996l-1.793,0.066c-0.62,0-1.793,0.022-3.52,0.066
			c-0.487,0.045-0.863,0.066-1.129,0.066c-2.125,0.045-3.918,0.199-5.379,0.465l-0.531-1.262l0.332-0.199
			c0.088-0.044,0.199-0.11,0.332-0.199c0.088-0.044,0.177-0.088,0.266-0.133c0.044-0.044,0.199-0.177,0.465-0.398
			c0.31-0.266,0.598-0.509,0.863-0.73c0.708-0.664,1.217-1.15,1.527-1.461c0.31-0.266,0.598-0.575,0.863-0.93
			c0.044-0.088,0.133-0.199,0.266-0.332c0.354-0.486,0.708-1.04,1.062-1.66H153.745z M150.757,116.845
			c0.885,0.089,2.213,0.133,3.984,0.133c1.328,0,3.099-0.066,5.312-0.199v1.328c0,0.487,0,2.502,0,6.043h-1.195v-0.93h-8.035v1.062
			h-1.195v-2.391c0-1.195-0.066-2.899-0.199-5.113L150.757,116.845z M158.858,117.974h-8.035v4.316h8.035V117.974z"/>
	</g>
</g>
</svg>
