<?xml version="1.0" standalone="no"?><!DOCTYPE svg PUBLIC "-//W3C//DTD SVG 1.1//EN" "http://www.w3.org/Graphics/SVG/1.1/DTD/svg11.dtd"><svg t="1527833566940" class="icon" style="" viewBox="0 0 1024 1024" version="1.1" xmlns="http://www.w3.org/2000/svg" p-id="2665" xmlns:xlink="http://www.w3.org/1999/xlink" width="200" height="200"><defs><style type="text/css"></style></defs><path d="M715.508485 960.567295c-57.159838 0-130.959657-38.164205-182.802396-70.187549-69.424162-42.878576-144.218636-102.2068-210.607672-167.033247l-0.242524-0.23843-21.076014-21.13025c-64.684208-66.536392-123.869169-141.504828-166.657694-211.090673-31.946596-51.957349-70.030983-125.919874-70.030983-183.212742 0-61.312414 43.74634-126.382409 62.547545-151.508669 14.675234-19.61678 65.943898-83.607186 109.507066-83.607186 17.883299 0 37.147038 11.734252 62.464657 38.052664 22.394033 23.26589 43.883463 52.193733 57.96211 72.359005 18.912745 27.072589 36.400025 55.420217 49.256844 79.823 20.803815 39.511899 23.209608 56.463989 23.209608 65.768913 0 18.779715-9.790994 35.074843-29.090549 48.422849-12.707416 8.783037-27.969005 15.396665-42.719964 21.795399-9.953699 4.317329-25.842575 11.202133-31.904641 16.045441 2.119267 8.973372 11.360745 30.656207 36.334533 67.408249 23.276123 34.252105 53.375651 71.362304 80.56285 99.345636 27.92398 27.249621 64.943105 57.424874 99.128695 80.747046 36.652781 25.025976 58.285474 34.294061 67.251683 36.416398 4.823865-6.073322 11.697413-21.998013 16.002462-31.967062 6.379291-14.788821 12.983709-30.087249 21.750373-42.824341 13.322423-19.348674 29.573549-29.151947 48.319495-29.151947 9.284457 0 26.193569 2.407839 65.614393 23.258727 24.350594 12.882402 52.636824 30.41266 79.648015 49.367361 20.119223 14.111392 48.980551 35.647895 72.200392 58.084906 26.248827 25.384134 37.95852 44.687782 37.95852 62.615083 0 43.659359-63.838957 95.048773-83.409688 109.74959C841.601298 916.732951 776.674567 960.567295 715.508485 960.567295L715.508485 960.567295 715.508485 960.567295 715.508485 960.567295zM670.06448 497.761718c-9.128915 0-17.214057-6.551206-18.857487-15.881712-4.692882-26.663266-20.095687-49.837058-43.383066-65.237817-23.612791-15.623839-52.480258-21.425985-81.285305-16.33299-10.428513 1.846044-20.369933-5.13802-22.204721-15.592117-1.838881-10.446933 5.121648-20.412912 15.550161-22.25384 38.495756-6.809079 77.229942 1.042749 109.058858 22.10546 32.166607 21.276582 53.486168 53.465702 60.027142 90.639347 1.837858 10.454096-5.123694 20.419052-15.551184 22.262026C672.294264 497.66962 671.170674 497.761718 670.06448 497.761718L670.06448 497.761718 670.06448 497.761718zM785.485233 448.140577c-9.128915 0-17.220197-6.553253-18.857487-15.877619-9.103332-51.752688-38.940894-96.67583-84.010369-126.488833-45.401026-30.03813-100.830453-41.203424-156.077731-31.43699-10.428513 1.841951-20.36277-5.14109-22.204721-15.588023-1.838881-10.44898 5.121648-20.422122 15.550161-22.26305 64.939011-11.471262 130.235157 1.735527 183.851285 37.2156 53.955866 35.687804 89.701998 89.633437 100.649328 151.888316 1.843998 10.454096-5.123694 20.422122-15.552208 22.26305C787.709901 448.046433 786.591427 448.140577 785.485233 448.140577L785.485233 448.140577 785.485233 448.140577zM939.582867 433.81736c-9.129938 0-17.22736-6.561439-18.86465-15.884782-15.533788-88.309278-66.401316-164.950819-143.238308-215.770252-77.161381-51.04763-171.311691-70.030983-265.100774-53.454446-10.423397 1.839905-20.364817-5.136997-22.199605-15.591093-1.835811-10.446933 5.123694-20.415982 15.553231-22.255887 103.477746-18.292622 207.488635 2.740414 292.872281 59.220776C884.322285 226.78819 941.10043 312.440965 958.483332 411.261645c1.842974 10.446933-5.123694 20.413935-15.552208 22.25384C941.806511 433.721169 940.688038 433.81736 939.582867 433.81736L939.582867 433.81736 939.582867 433.81736zM939.582867 433.81736" p-id="2666" fill="#ffffff"></path></svg>