<?xml version="1.0" standalone="no"?><!DOCTYPE svg PUBLIC "-//W3C//DTD SVG 1.1//EN" "http://www.w3.org/Graphics/SVG/1.1/DTD/svg11.dtd"><svg t="1531327364005" class="icon" style="" viewBox="0 0 1024 1024" version="1.1" xmlns="http://www.w3.org/2000/svg" p-id="2732" xmlns:xlink="http://www.w3.org/1999/xlink" width="200" height="200"><defs><style type="text/css"></style></defs><path d="M934.627556 459.505778c6.314667 0 12.373333 0.938667 18.261333 2.332444V277.248c0-13.397333-10.865778-24.263111-24.263111-24.263111H118.272c-13.397333 0-24.263111 10.865778-24.263111 24.263111v519.068444c0 13.397333 10.865778 24.263111 24.263111 24.263112h810.353778c13.397333 0 24.263111-10.865778 24.263111-24.263112v-184.604444c-5.888 1.393778-11.946667 2.332444-18.261333 2.332444-43.192889 0-78.208-34.602667-78.208-77.269333s35.015111-77.269333 78.208-77.269333zM916.48 649.016889v135.153778H130.403556v-494.791111H916.48v135.153777c-54.599111 8.647111-96.469333 55.694222-96.469333 112.241778s41.870222 103.594667 96.469333 112.241778z" p-id="2733" fill="#ffffff"></path><path d="M252.288 326.741333h16.853333v43.079111h-16.853333zM252.288 405.233778h16.853333v43.079111h-16.853333zM252.288 483.726222h16.853333v43.079111h-16.853333zM252.288 562.204444h16.853333v43.079112h-16.853333zM252.288 640.696889h16.853333v43.079111h-16.853333zM252.288 719.189333h16.853333v43.079111h-16.853333z" p-id="2734" fill="#ffffff"></path><path d="M713.386667 326.741333h16.853333v43.079111H713.386667zM713.386667 405.233778h16.853333v43.079111H713.386667zM713.386667 483.726222h16.853333v43.079111H713.386667zM713.386667 562.204444h16.853333v43.079112H713.386667zM713.386667 640.696889h16.853333v43.079111H713.386667zM713.386667 719.189333h16.853333v43.079111H713.386667z" p-id="2735" fill="#ffffff"></path><path d="M596.252444 394.339556l-77.795555 133.632h61.297778v29.525333h-71.424v40.704h71.424v29.909333h-71.424v59.249778h-36.736v-59.249778h-74.055111v-29.909333h74.055111v-40.704h-74.055111v-29.525333h63.175111l-77.041778-133.632h41.429333c35.996444 66.375111 57.856 108.458667 65.607111 126.250666h0.753778c2.631111-7.310222 9.813333-22.072889 21.560889-44.288l44.060444-81.962666h39.168z" p-id="2736" fill="#ffffff"></path></svg>