<?xml version="1.0" standalone="no"?><!DOCTYPE svg PUBLIC "-//W3C//DTD SVG 1.1//EN" "http://www.w3.org/Graphics/SVG/1.1/DTD/svg11.dtd"><svg t="1529248350501" class="icon" style="" viewBox="0 0 1024 1024" version="1.1" xmlns="http://www.w3.org/2000/svg" p-id="2313" xmlns:xlink="http://www.w3.org/1999/xlink" width="200" height="200"><defs><style type="text/css"></style></defs><path d="M729.689974 64.46829l-96.682993 0 0 96.679923 96.682993 0L729.689974 64.46829zM560.495504 88.643899l-96.6789 0 0 96.679923 96.6789 0L560.495504 88.643899zM729.689974 620.381429 729.689974 330.342684l47.208185-49.158606 1.1328-47.521317L246.285243 233.662761l0 48.338938 48.340985 48.340985 0 290.038746L173.772742 813.751508l0 96.679923 24.549116 48.340985 627.672486 0 24.547069-49.158606 0-95.861278L729.689974 620.381429zM391.305127 596.217077 391.305127 572.041468l145.022954 0 0-72.504314-145.022954 0 0-48.338938 145.022954 0 0-72.51557-145.022954 0c0 0 0.052189-46.812165 0-48.338938l241.702877 0 0 265.874393 24.171516 24.164353L367.136681 620.382453 391.305127 596.217077zM271.586488 860.45418l95.550193-167.55718 290.042839 0 48.338938 48.338938L463.815581 741.235938l0 72.514547 265.874393 0 23.036669 46.702672L271.586488 860.453157z" p-id="2314" fill="#ffffff"></path></svg>