<?xml version="1.0" encoding="UTF-8"?>
<svg width="147px" height="167px" viewBox="0 0 147 167" version="1.1" xmlns="http://www.w3.org/2000/svg" xmlns:xlink="http://www.w3.org/1999/xlink">
    <!-- Generator: Sketch 50.2 (55047) - http://www.bohemiancoding.com/sketch -->
    <title>logo</title>
    <desc>Created with Sketch.</desc>
    <defs></defs>
    <g id="Page-1" stroke="none" stroke-width="1" fill="none" fill-rule="evenodd">
        <g id="logo" fill-rule="nonzero">
            <path d="M47.9585,84.0453 C48.1465,93.8493 48.5975,103.6243 50.3565,113.3103 C50.6155,114.7313 52.0185,116.9593 48.9475,117.6873 C45.8925,118.4103 45.8825,118.5573 45.1545,115.3543 C44.2505,111.3813 43.7335,107.3403 43.4725,103.2833 C43.3765,101.8073 42.9135,100.9173 41.6945,100.0393 C36.7755,96.4953 31.9485,92.8163 27.5355,88.6463 C26.3935,87.5673 25.7045,87.6853 24.7165,88.7593 C19.6415,94.2773 14.9495,100.0683 11.8315,106.9553 C11.0255,108.7333 9.9695,109.7193 8.0125,108.9723 C6.1995,108.2803 5.8755,106.6073 6.8855,104.3683 C9.8555,97.7873 14.1115,92.0953 18.9585,86.8083 C19.2955,86.4403 19.6335,86.0673 20.0085,85.7393 C21.8605,84.1183 21.6025,82.8213 19.8915,81.0533 C13.9705,74.9343 8.9145,68.1793 5.9415,60.0793 C5.5165,58.9193 4.9875,57.6723 5.0335,56.4863 C5.1705,52.9643 1.9565,51.1553 1.0675,48.1553 C0.0885,44.8503 1.0965,42.2353 3.4225,40.0603 C5.9185,37.7273 9.0295,37.3733 12.0145,38.7163 C14.7765,39.9603 16.5345,42.2093 16.6975,45.5223 C16.8855,49.3463 15.1385,51.9693 11.8325,53.4283 C10.4615,54.0333 10.3025,54.6503 10.5545,55.8393 C11.4635,60.1383 13.5565,63.9133 15.9935,67.4623 C22.7445,77.2893 31.3555,85.3073 40.8265,92.4493 C41.2435,92.7633 41.6065,93.5303 42.2785,93.0933 C42.8685,92.7093 42.4745,92.0223 42.4745,91.4713 C42.4745,87.8893 42.4505,84.3083 42.4505,80.7273 C42.4505,78.8703 44.8705,75.8663 46.6665,75.5043 C47.9965,75.2363 47.9455,76.2113 47.9525,77.0493 C47.9705,79.3813 47.9585,81.7133 47.9585,84.0453" id="Fill-4" fill="#FFFFFF"></path>
            <path d="M27.4082,41.6468 C25.4962,41.6468 23.5822,41.5908 21.6722,41.6628 C19.8132,41.7328 18.7672,40.7948 18.7002,39.0778 C18.6382,37.5038 19.5352,36.4848 21.2562,36.2978 C27.2502,35.6478 33.2102,35.9318 39.1372,36.9408 C41.4262,37.3308 43.6842,37.9008 45.9582,38.3778 C47.3532,38.6708 48.0312,38.4248 48.5412,36.7278 C51.1782,27.9578 54.5202,19.4858 60.6662,12.4518 C61.3722,11.6438 62.1852,10.9118 63.0282,10.2448 C64.6192,8.9818 65.7552,7.5338 66.3592,5.4898 C67.2752,2.3898 70.8962,0.2178 74.1692,0.4288 C77.5602,0.6468 80.8992,3.4218 81.5382,6.5538 C82.2722,10.1448 80.6282,13.9648 77.6552,15.5248 C74.6622,17.0948 71.7132,17.0768 69.0122,14.9528 C67.6412,13.8758 66.7682,14.1608 65.6462,15.3188 C61.0342,20.0758 58.1742,25.8848 55.9142,31.9548 C52.6402,40.7528 50.4982,49.8638 49.5512,59.2278 C49.4902,59.8298 49.0522,60.6118 49.8362,61.0228 C50.4572,61.3488 50.9012,60.6938 51.3712,60.4218 C54.4512,58.6398 57.4982,56.7998 60.5722,55.0058 C62.1742,54.0698 66.2612,54.9388 67.4002,56.3778 C68.3112,57.5298 67.1062,57.6028 66.5982,57.9078 C62.5462,60.3388 58.4462,62.6888 54.4072,65.1408 C47.7262,69.1958 41.4972,73.8858 35.4402,78.8108 C33.4262,80.4478 30.7492,79.7398 29.8942,77.3148 C29.5362,76.2988 30.3932,75.8088 31.0022,75.3228 C34.7032,72.3768 38.4182,69.4468 42.1742,66.5718 C42.8022,66.0908 43.3432,65.7058 43.3862,64.8438 C43.6312,59.8548 44.4832,54.9468 45.3922,50.0468 C45.4222,49.8838 45.4472,49.7108 45.4252,49.5488 C45.1772,47.6998 47.5842,45.6598 45.7272,44.2058 C44.3612,43.1348 42.1532,43.0068 40.2802,42.7398 C36.0102,42.1328 31.7732,41.1268 27.4082,41.6468" id="Fill-6" fill="#FFFFFF"></path>
            <path d="M99.4478,81.6429 C99.4148,71.7309 98.6088,61.8819 96.6298,52.1679 C95.9678,48.9169 98.6018,49.4639 100.0578,48.7819 C101.8658,47.9349 101.9818,49.7649 102.1328,50.7039 C102.8158,54.9659 103.3918,59.2489 103.8358,63.5419 C104.0068,65.1959 104.6748,66.3409 105.9878,67.2429 C110.8558,70.5849 115.4238,74.3099 119.7628,78.3069 C120.8888,79.3429 121.6268,79.2199 122.6428,78.1579 C127.6658,72.9079 132.0988,67.2439 135.2758,60.6689 C136.5818,57.9659 137.8308,57.1449 139.4508,57.9859 C141.1678,58.8769 141.4408,60.7029 140.2298,63.2409 C136.9458,70.1299 132.4038,76.1429 127.0938,81.5569 C125.5318,83.1499 125.6468,83.9139 127.1358,85.4789 C132.8178,91.4529 137.8898,97.8959 140.9968,105.6589 C141.3028,106.4249 141.5118,107.2289 141.7648,108.0169 C142.7688,111.1519 143.1238,114.3339 145.4588,117.1909 C148.2738,120.6329 146.2758,126.1299 142.2948,128.2199 C138.5588,130.1809 133.2138,128.3809 131.4368,124.5639 C129.4138,120.2169 131.1738,115.1859 135.5708,113.6009 C137.2708,112.9879 137.2748,112.3799 136.8548,110.9379 C134.0558,101.3409 127.7408,94.1039 120.9928,87.1639 C116.5228,82.5679 111.6778,78.3819 106.5678,74.5079 C106.1208,74.1699 105.7298,73.4649 105.1148,73.6909 C104.3018,73.9909 104.6308,74.8439 104.6448,75.4559 C104.7218,78.8629 104.8918,82.2689 104.9488,85.6769 C104.9898,88.0669 102.7748,90.9749 100.5418,91.6639 C99.2168,92.0729 99.4148,91.0569 99.3998,90.3879 C99.3648,88.8899 99.4338,87.3899 99.4458,85.8909 C99.4558,84.4749 99.4478,83.0589 99.4478,81.6429" id="Fill-8" fill="#FFFFFF"></path>
            <path d="M97.813,105.6044 C94.169,107.7084 90.48,109.8534 86.777,111.9704 C85.271,112.8314 80.608,111.8894 79.758,110.5004 C78.949,109.1784 80.459,109.1784 80.966,108.9074 C86.822,105.7834 92.469,102.3284 97.97,98.6144 C102.932,95.2644 107.806,91.7874 112.255,87.7874 C114.592,85.6864 115.508,87.6944 116.82,88.8904 C118.513,90.4354 116.981,91.0864 116.007,91.9504 C112.832,94.7644 109.531,97.4244 105.975,99.7314 C104.081,100.9594 103.764,102.7884 103.694,104.6924 C103.494,110.2044 102.213,115.5494 101.251,120.9374 C100.96,122.5654 101.517,123.0394 102.85,123.3414 C110.005,124.9604 117.208,126.0334 124.578,125.3964 C125.395,125.3244 126.331,125.2374 127.033,125.5544 C128.131,126.0484 128.835,127.0144 128.618,128.3694 C128.409,129.6654 127.692,130.4294 126.358,130.6424 C122.547,131.2494 118.712,131.1324 114.898,130.8774 C110.51,130.5844 106.156,129.9524 101.92,128.6704 C99.975,128.0814 99.171,129.0144 98.601,130.8874 C95.73,140.3124 92.165,149.4184 84.792,156.3914 C83.169,157.9254 81.791,159.3344 80.96,161.5754 C79.222,166.2674 74.319,167.8114 69.824,165.5214 C65.929,163.5394 64.488,158.2214 66.792,154.3284 C69.106,150.4164 74.358,148.9984 78.033,151.8214 C80.132,153.4334 81.011,152.5274 82.231,151.1804 C87.059,145.8434 90.002,139.4444 92.281,132.7504 C95.136,124.3574 96.924,115.6964 98.077,106.9074 C98.13,106.5004 98.304,106.1014 97.813,105.6044" id="Fill-10" fill="#FFFFFF"></path>
            <path d="M27.6206,125.5853 C41.1566,125.2193 53.3246,121.2353 65.2866,116.4053 C65.7556,116.2163 66.2986,116.1463 66.3186,115.5233 C66.3386,114.9083 65.8036,114.7983 65.3586,114.5573 C62.3756,112.9413 59.4116,111.2943 56.4496,109.6413 C53.7606,108.1413 52.6366,105.4223 53.4176,102.5643 C53.8126,101.1193 54.4736,102.0073 55.0306,102.3293 C57.3996,103.6983 59.7436,105.1103 62.1106,106.4833 C70.8036,111.5223 79.8836,115.7613 89.3296,119.1503 C92.5236,120.2963 90.7176,122.2763 90.4426,123.8043 C90.0866,125.7793 88.3856,124.7703 87.4106,124.3983 C83.2356,122.8103 79.1156,121.0713 75.0026,119.3213 C74.1906,118.9773 73.5646,118.8183 72.6756,119.2043 C66.9846,121.6733 61.2866,124.1283 55.3276,125.9073 C53.7916,126.3663 53.2656,127.2373 53.8286,128.9013 C56.1986,135.8983 58.6306,142.8463 63.1736,148.8253 C64.3326,150.3523 64.3786,152.1133 62.7636,153.2423 C61.2726,154.2833 59.7136,153.6983 58.6336,152.2293 C54.4106,146.4853 51.6616,140.0213 49.4246,133.3093 C49.1886,132.6033 48.9226,131.9073 48.6756,131.2053 C47.6316,128.2333 47.3476,128.1383 44.3586,128.9253 C36.0636,131.1083 27.6466,131.5423 19.1466,130.4943 C18.5776,130.4243 18.0306,130.1783 17.4746,130.0093 C14.7246,129.1693 12.1346,128.3143 9.0236,128.8683 C4.7966,129.6223 0.8336,125.6343 0.6156,121.1983 C0.4076,116.9773 4.2196,113.0873 8.6436,113.0073 C13.1416,112.9263 16.7886,116.2593 16.5956,120.7033 C16.4866,123.1963 17.0146,124.3083 19.6616,124.8633 C22.4876,125.4563 25.2956,125.2263 27.6206,125.5853" id="Fill-12" fill="#FFFFFF"></path>
            <path d="M119.7891,41.4149 C106.3281,41.7339 94.1821,45.7569 82.2271,50.5619 C81.7551,50.7519 81.2331,50.8819 81.2251,51.4949 C81.2161,52.1119 81.7701,52.2209 82.2061,52.4619 C85.3891,54.2269 88.5721,55.9939 91.7261,57.8099 C93.0911,58.5949 94.7251,63.0339 94.1071,64.3799 C93.4651,65.7779 92.4781,64.7839 91.8541,64.3929 C87.9951,61.9709 84.0211,59.7569 80.0081,57.6039 C72.9221,53.8029 65.5871,50.5359 58.0351,47.8209 C55.2681,46.8269 56.4791,45.1439 56.7201,43.6419 C57.0361,41.6679 58.5801,42.0379 59.8221,42.5219 C64.0591,44.1739 68.2741,45.8859 72.4531,47.6799 C73.3901,48.0819 74.0691,48.1019 75.0031,47.6859 C80.5221,45.2319 86.0821,42.8709 91.8811,41.1289 C93.3411,40.6899 94.0831,40.0539 93.5011,38.1479 C91.3101,30.9739 88.5721,24.0859 84.1221,17.9839 C83.2911,16.8449 83.1241,15.7069 83.8261,14.5339 C84.5061,13.3969 85.6331,13.1569 86.8751,13.3939 C87.7741,13.5659 88.2371,14.2829 88.7471,14.9399 C92.8491,20.2329 95.2901,26.3579 97.5781,32.5599 C97.8651,33.3379 98.1771,34.1089 98.4121,34.9029 C99.6161,38.9709 99.5681,38.7979 103.8361,37.7969 C111.9111,35.9039 120.1021,35.4239 128.3481,36.5209 C129.2381,36.6399 130.1871,36.8889 130.9411,37.3509 C133.8851,39.1509 137.0961,37.8069 140.1371,38.2719 C144.4281,38.9289 146.9461,42.4579 146.5731,47.1369 C146.2771,50.8479 142.6511,53.9839 138.6451,53.9949 C134.4121,54.0049 130.9151,50.8329 130.6101,46.7049 C130.3131,42.6819 129.9771,42.2399 125.8681,41.7159 C123.7291,41.4439 121.5501,41.4929 119.7891,41.4149" id="Fill-14" fill="#FFFFFF"></path>
            <path d="M8.8369,48.4652 C7.2599,48.3682 6.4539,47.5402 6.4299,46.0842 C6.4049,44.5182 7.1939,43.5492 8.8399,43.5732 C10.3369,43.5942 11.2119,44.6152 11.2509,45.9232 C11.2939,47.3862 10.3349,48.3382 8.8369,48.4652" id="Fill-16" fill="#374267"></path>
            <path d="M73.6709,6.1229 C75.0259,6.3369 76.0909,7.0769 76.1279,8.4459 C76.1699,9.9529 75.0679,10.9229 73.6109,10.9139 C72.2539,10.9059 71.3829,10.0459 71.3989,8.5159 C71.4149,6.9819 72.2879,6.3329 73.6709,6.1229" id="Fill-18" fill="#374267"></path>
            <path d="M141.0635,120.934 C140.8265,122.213 140.3885,123.33 138.8315,123.43 C137.1685,123.538 136.3395,122.521 136.2455,121.064 C136.1555,119.683 136.9475,118.681 138.4175,118.545 C140.0815,118.392 140.7245,119.496 141.0635,120.934" id="Fill-20" fill="#374267"></path>
            <path d="M73.7139,155.9984 C75.0129,156.3534 76.1839,156.9654 76.1439,158.4214 C76.1029,159.9294 75.0449,160.8724 73.5469,160.8224 C72.1379,160.7764 71.3189,159.8684 71.3689,158.3654 C71.4199,156.8444 72.3859,156.2384 73.7139,155.9984" id="Fill-22" fill="#374267"></path>
            <path d="M8.9932,123.4603 C7.3752,123.4233 6.5042,122.6453 6.4302,121.1893 C6.3512,119.6503 7.0692,118.6203 8.7322,118.5643 C10.2512,118.5153 11.1362,119.5223 11.2472,120.8123 C11.3762,122.2913 10.3982,123.2293 8.9932,123.4603" id="Fill-24" fill="#374267"></path>
            <path d="M138.4634,43.5521 C140.2004,43.6041 140.9444,44.5921 140.9674,45.9591 C140.9894,47.3231 140.2784,48.3951 138.7364,48.4491 C137.0604,48.5081 136.2564,47.4171 136.2744,45.9331 C136.2894,44.5591 137.1154,43.6171 138.4634,43.5521" id="Fill-26" fill="#374267"></path>
        </g>
    </g>
</svg>