<?xml version="1.0" standalone="no"?><!DOCTYPE svg PUBLIC "-//W3C//DTD SVG 1.1//EN" "http://www.w3.org/Graphics/SVG/1.1/DTD/svg11.dtd"><svg t="1529248431188" class="icon" style="" viewBox="0 0 1024 1024" version="1.1" xmlns="http://www.w3.org/2000/svg" p-id="1615" xmlns:xlink="http://www.w3.org/1999/xlink" width="200" height="200"><defs><style type="text/css"></style></defs><path d="M922.683689 299.648581c-2.752226-3.440282-9.116748-7.740635-16.857383-10.492861-4.988409-1.376113-18.40551-4.988409-37.327062-10.492861-24.598018-6.364522-42.315471-14.105157-52.808332-23.221905-14.105157-12.729044-21.845792-28.210314-21.845792-46.44381 0-11.352931 3.440282-23.221905 10.492861-33.886779 6.364522-10.492861 16.857383-18.233496 28.210314-23.221905 12.729044-4.988409 28.210314-7.740635 45.067697-7.740635 29.586427 0 51.432219 6.364522 65.537376 19.093566 14.105157 12.729044 21.845792 29.586427 23.221905 50.056106l-46.44381 2.752226c-2.752226-11.352931-6.364522-20.469679-12.729044-26.146145-6.364522-4.988409-16.857383-7.740635-29.586427-7.740635-14.105157 0-24.598018 2.752226-32.338653 7.740635-4.988409 3.440282-7.740635 7.740635-7.740635 14.105157 0 4.988409 2.752226 10.492861 6.364522 14.105157 6.364522 4.988409 20.469679 10.492861 42.315471 15.48127 23.221905 4.988409 40.079288 10.492861 50.056107 16.857383 10.492861 4.988409 19.093566 14.105157 26.146144 23.221905 6.364522 10.492861 9.116748 21.845792 9.116748 37.327062 0 12.729044-3.440282 26.146145-11.352931 37.327062-7.740635 11.352931-18.233496 20.469679-30.96254 26.146145-12.729044 4.988409-29.586427 9.116748-50.056106 9.116747-29.586427 0-51.432219-6.364522-66.913489-20.469679-15.48127-12.729044-24.598018-33.88678-28.210314-59.172854l45.067697-3.440282c2.752226 15.48127 7.740635 26.146145 16.857383 33.88678 7.740635 7.740635 19.093566 10.492861 33.886779 10.492861 15.48127 0 26.146145-2.752226 33.88678-9.116748 7.740635-6.364522 11.352931-14.105157 11.352931-21.845792 3.268268-6.536536 1.892155-9.976818-2.408197-14.277171zM44.035612 150.340333h45.067697l94.435747 153.6086V150.340333h43.691584v231.01495h-46.44381l-94.435747-151.372417v151.372417H44.035612V150.340333zM453.429195 381.355283H276.59869V150.340333h172.530153v38.703174h-125.398287v51.43222h116.281539v38.703174h-116.281539v63.473207h129.698639v38.703175zM469.598522 150.340333h47.991937l35.950949 158.59701 41.4554-158.59701h55.732572l40.939358 161.349235 36.639006-161.349235h46.44381l-57.108685 231.01495h-49.36805L622.519066 208.137074l-45.755753 173.218209h-51.432219L469.598522 150.340333zM553.541408 766.838905h431.067361v73.278011H553.541408v-73.278011zM553.541408 622.347052h431.067361v73.278011H553.541408v-73.278011zM553.541408 478.027213h431.067361v73.278011H553.541408v-73.278011z" p-id="1616" fill="#ffffff"></path></svg>