<?xml version="1.0" encoding="UTF-8"?>
<svg width="1018px" height="1024px" viewBox="0 0 1018 1024" version="1.1" xmlns="http://www.w3.org/2000/svg" xmlns:xlink="http://www.w3.org/1999/xlink">
    <!-- Generator: Sketch 50.2 (55047) - http://www.bohemiancoding.com/sketch -->
    <title>Shape</title>
    <desc>Created with Sketch.</desc>
    <defs></defs>
    <g id="Page-1" stroke="none" stroke-width="1" fill="none" fill-rule="evenodd">
        <g id="sign-up" fill="#FFFFFF" fill-rule="nonzero">
            <path d="M786.779,984.843 C755.047,984.843 725.017,978.802 696.683,966.709 C668.349,954.621 643.603,938 622.449,916.844 C601.298,895.688 584.677,870.947 572.585,842.615 C560.498,814.281 554.451,784.253 554.451,752.515 C554.451,720.783 560.498,690.753 572.585,662.42 C584.676,634.087 601.299,609.527 622.449,588.756 C643.603,567.976 668.348,551.542 696.683,539.455 C725.016,527.364 755.046,521.319 786.779,521.319 C818.513,521.319 848.544,527.363 876.877,539.455 C905.211,551.542 929.765,567.976 950.542,588.756 C971.321,609.53 987.752,634.09 999.842,662.42 C1011.93,690.753 1017.979,720.782 1017.979,752.515 C1017.979,784.252 1011.93,814.281 999.842,842.615 C987.754,870.949 971.321,895.688 950.542,916.844 C929.762,938.001 905.21,954.622 876.877,966.709 C848.545,978.802 818.514,984.843 786.779,984.843 Z M901.244,715.118 L817.379,715.118 L817.379,636.921 C817.379,626.34 813.984,617.276 807.181,609.718 C800.38,602.164 791.692,598.386 781.112,598.386 C770.537,598.386 762.225,602.164 756.183,609.718 C750.14,617.277 747.115,626.34 747.115,636.921 L747.115,715.118 L673.45,715.118 C662.875,715.118 653.809,718.891 646.253,726.452 C638.697,734.005 634.92,743.075 634.92,753.649 C634.92,764.224 638.697,772.161 646.253,777.452 C653.81,782.74 662.875,785.38 673.45,785.38 L747.115,785.38 L747.115,865.846 C747.115,876.427 750.14,885.491 756.183,893.046 C762.225,900.605 770.537,904.378 781.112,904.378 C791.692,904.378 800.379,900.604 807.181,893.046 C813.983,885.49 817.379,876.427 817.379,865.846 L817.379,785.38 L901.244,785.38 L901.244,787.65 C911.823,787.65 920.888,784.629 928.442,778.587 C936.002,772.539 939.775,764.227 939.775,753.651 C939.775,743.077 936.001,734.006 928.442,726.454 C920.889,718.892 911.823,715.118 901.244,715.118 Z M621.321,432.927 C618.298,445.013 615.272,455.969 612.251,465.792 C609.23,474.103 605.45,482.603 600.919,491.29 C596.385,499.978 591.477,506.591 586.188,511.123 C579.387,516.412 574.666,522.08 572.021,528.123 C569.376,534.165 567.106,540.394 565.219,546.82 C563.332,553.243 561.253,559.85 558.99,566.652 C556.719,573.454 552.941,580.254 547.658,587.051 C530.275,609.715 517.242,631.629 508.554,652.783 C499.866,673.938 493.823,694.337 490.421,713.984 C487.023,733.627 486.076,753.086 487.585,772.346 C489.098,791.615 492.118,810.315 496.654,828.446 C499.676,842.043 504.209,856.21 510.251,870.945 C516.299,885.675 525.176,900.789 536.883,916.278 C548.594,931.766 563.517,946.873 581.653,961.61 C599.783,976.341 622.447,990.506 649.651,1004.109 C631.516,1007.883 610.36,1011.286 586.184,1014.308 C565.782,1016.579 540.663,1018.651 510.822,1020.537 C480.977,1022.433 446.786,1023.373 408.256,1023.373 C388.61,1023.373 365.757,1022.62 339.692,1021.108 C313.624,1019.596 286.807,1017.707 259.227,1015.442 C231.653,1013.173 204.448,1010.529 177.628,1007.507 C150.812,1004.485 126.252,1001.275 103.963,997.873 C81.677,994.476 62.785,990.884 47.297,987.106 C31.813,983.33 22.178,979.929 18.399,976.909 C11.599,970.86 6.314,954.049 2.535,926.473 C-1.244,898.903 -0.11,862.821 5.933,818.244 C9.711,793.311 19.722,774.235 35.965,761.009 C52.21,747.789 71.286,737.404 93.2,729.844 C115.107,722.289 137.964,715.3 161.763,708.876 C185.562,702.457 206.531,693.581 224.665,682.249 C239.02,673.182 249.976,664.679 257.529,656.748 C265.082,648.813 270.372,640.693 273.393,632.38 C276.415,624.074 277.927,615.38 277.927,606.316 C277.927,597.251 277.55,587.428 276.794,576.847 C275.28,560.982 269.81,548.514 260.362,539.451 C250.917,530.382 240.906,521.315 230.33,512.252 C224.281,507.715 218.997,500.921 214.46,491.851 C209.927,482.788 206.153,474.098 203.127,465.788 C199.353,455.964 196.33,445.009 194.062,432.923 C188.772,431.412 183.864,429.145 179.332,426.122 C175.553,423.101 171.396,418.563 166.863,412.519 C162.331,406.477 158.175,397.412 154.395,385.32 C150.616,373.987 149.294,363.412 150.429,353.591 C151.561,343.767 153.643,335.457 156.665,328.655 C159.687,320.344 163.842,313.165 169.128,307.124 C169.128,281.436 170.644,255.748 173.667,230.055 C176.689,208.148 181.408,184.722 187.834,159.795 C194.253,134.859 204.645,112.57 219,92.931 C232.597,74.039 247.144,58.549 262.628,46.465 C278.117,34.374 294.174,24.933 310.794,18.132 C327.415,11.33 344.038,6.611 360.661,3.965 C377.28,1.323 393.149,0 408.26,0 C427.903,0 446.789,2.27 464.924,6.802 C483.057,11.333 499.867,17.377 515.357,24.936 C530.849,32.489 544.636,40.99 556.722,50.435 C568.813,59.876 578.635,69.509 586.19,79.331 C603.566,101.24 616.221,125.421 624.159,151.861 C632.089,178.307 637.942,203.237 641.722,226.66 C645.501,253.859 647.013,281.056 646.256,308.262 C650.789,312.036 654.568,316.568 657.588,321.858 C660.608,326.39 662.878,332.439 664.389,339.992 C665.902,347.545 665.902,356.992 664.389,368.325 C662.877,382.68 659.855,394.013 655.326,402.325 C650.788,410.638 645.881,417.055 640.59,421.594 C634.541,426.878 628.117,430.657 621.321,432.927 Z" id="Shape"></path>
        </g>
    </g>
</svg>